<mxfile host="www.draw.io" modified="2020-01-30T12:22:05.936Z" agent="Mozilla/5.0 (Windows NT 10.0; Win64; x64) AppleWebKit/537.36 (KHTML, like Gecko) Chrome/79.0.3945.130 Safari/537.36" etag="BFWfdfPxkyShAgBUXE0A" version="12.6.2" type="github">
  <diagram id="C5RBs43oDa-KdzZeNtuy" name="Page-1">
    <mxGraphModel dx="1848" dy="509" grid="1" gridSize="10" guides="1" tooltips="1" connect="1" arrows="1" fold="1" page="1" pageScale="1" pageWidth="827" pageHeight="1169" math="0" shadow="0">
      <root>
        <mxCell id="WIyWlLk6GJQsqaUBKTNV-0"/>
        <mxCell id="WIyWlLk6GJQsqaUBKTNV-1" parent="WIyWlLk6GJQsqaUBKTNV-0"/>
        <mxCell id="aCuzjfMaCI9LKKOryCT1-0" value="" style="rounded=0;whiteSpace=wrap;html=1;" vertex="1" parent="WIyWlLk6GJQsqaUBKTNV-1">
          <mxGeometry x="150" y="205" width="90" height="30" as="geometry"/>
        </mxCell>
        <mxCell id="aCuzjfMaCI9LKKOryCT1-2" value="" style="rounded=0;whiteSpace=wrap;html=1;" vertex="1" parent="WIyWlLk6GJQsqaUBKTNV-1">
          <mxGeometry x="150" y="410" width="90" height="30" as="geometry"/>
        </mxCell>
        <mxCell id="aCuzjfMaCI9LKKOryCT1-5" value="" style="rounded=0;whiteSpace=wrap;html=1;" vertex="1" parent="WIyWlLk6GJQsqaUBKTNV-1">
          <mxGeometry x="400" y="205" width="90" height="30" as="geometry"/>
        </mxCell>
        <mxCell id="aCuzjfMaCI9LKKOryCT1-6" value="" style="rounded=0;whiteSpace=wrap;html=1;" vertex="1" parent="WIyWlLk6GJQsqaUBKTNV-1">
          <mxGeometry x="610" y="400" width="90" height="30" as="geometry"/>
        </mxCell>
        <mxCell id="aCuzjfMaCI9LKKOryCT1-7" value="" style="rounded=0;whiteSpace=wrap;html=1;" vertex="1" parent="WIyWlLk6GJQsqaUBKTNV-1">
          <mxGeometry x="610" y="205" width="90" height="30" as="geometry"/>
        </mxCell>
        <mxCell id="aCuzjfMaCI9LKKOryCT1-10" value="Last_Name" style="ellipse;whiteSpace=wrap;html=1;" vertex="1" parent="WIyWlLk6GJQsqaUBKTNV-1">
          <mxGeometry x="10" y="80" width="70" height="40" as="geometry"/>
        </mxCell>
        <mxCell id="aCuzjfMaCI9LKKOryCT1-11" value="&lt;u&gt;Email_Id&lt;/u&gt;" style="ellipse;whiteSpace=wrap;html=1;" vertex="1" parent="WIyWlLk6GJQsqaUBKTNV-1">
          <mxGeometry x="-70.35" y="205" width="70" height="40" as="geometry"/>
        </mxCell>
        <mxCell id="aCuzjfMaCI9LKKOryCT1-12" value="Status" style="ellipse;whiteSpace=wrap;html=1;" vertex="1" parent="WIyWlLk6GJQsqaUBKTNV-1">
          <mxGeometry x="-60" y="130" width="70" height="40" as="geometry"/>
        </mxCell>
        <mxCell id="aCuzjfMaCI9LKKOryCT1-13" value="Contact_&lt;br&gt;Details" style="ellipse;whiteSpace=wrap;html=1;" vertex="1" parent="WIyWlLk6GJQsqaUBKTNV-1">
          <mxGeometry x="190" y="120" width="70" height="40" as="geometry"/>
        </mxCell>
        <mxCell id="aCuzjfMaCI9LKKOryCT1-14" value="Password" style="ellipse;whiteSpace=wrap;html=1;" vertex="1" parent="WIyWlLk6GJQsqaUBKTNV-1">
          <mxGeometry x="100" y="320" width="70" height="40" as="geometry"/>
        </mxCell>
        <mxCell id="aCuzjfMaCI9LKKOryCT1-15" value="User_id" style="ellipse;whiteSpace=wrap;html=1;" vertex="1" parent="WIyWlLk6GJQsqaUBKTNV-1">
          <mxGeometry x="250" y="150" width="70" height="40" as="geometry"/>
        </mxCell>
        <mxCell id="aCuzjfMaCI9LKKOryCT1-16" value="Mobile_No" style="ellipse;whiteSpace=wrap;html=1;" vertex="1" parent="WIyWlLk6GJQsqaUBKTNV-1">
          <mxGeometry x="-0.3500000000000014" y="320" width="70" height="40" as="geometry"/>
        </mxCell>
        <mxCell id="aCuzjfMaCI9LKKOryCT1-17" value="First_Name" style="ellipse;whiteSpace=wrap;html=1;" vertex="1" parent="WIyWlLk6GJQsqaUBKTNV-1">
          <mxGeometry x="110" y="80" width="70" height="40" as="geometry"/>
        </mxCell>
        <mxCell id="aCuzjfMaCI9LKKOryCT1-18" value="Is_Admin" style="ellipse;whiteSpace=wrap;html=1;" vertex="1" parent="WIyWlLk6GJQsqaUBKTNV-1">
          <mxGeometry x="-70.35" y="280" width="70" height="40" as="geometry"/>
        </mxCell>
        <mxCell id="aCuzjfMaCI9LKKOryCT1-20" value="" style="endArrow=none;html=1;exitX=1;exitY=0.5;exitDx=0;exitDy=0;entryX=0;entryY=0.5;entryDx=0;entryDy=0;" edge="1" parent="WIyWlLk6GJQsqaUBKTNV-1" source="aCuzjfMaCI9LKKOryCT1-11" target="aCuzjfMaCI9LKKOryCT1-0">
          <mxGeometry width="50" height="50" relative="1" as="geometry">
            <mxPoint x="40" y="240" as="sourcePoint"/>
            <mxPoint x="90" y="190" as="targetPoint"/>
          </mxGeometry>
        </mxCell>
        <mxCell id="aCuzjfMaCI9LKKOryCT1-21" value="" style="endArrow=none;html=1;exitX=1;exitY=0.5;exitDx=0;exitDy=0;entryX=0;entryY=0;entryDx=0;entryDy=0;" edge="1" parent="WIyWlLk6GJQsqaUBKTNV-1" source="aCuzjfMaCI9LKKOryCT1-12" target="aCuzjfMaCI9LKKOryCT1-0">
          <mxGeometry width="50" height="50" relative="1" as="geometry">
            <mxPoint x="30" y="200" as="sourcePoint"/>
            <mxPoint x="80" y="150" as="targetPoint"/>
          </mxGeometry>
        </mxCell>
        <mxCell id="aCuzjfMaCI9LKKOryCT1-22" value="" style="endArrow=none;html=1;exitX=0.5;exitY=1;exitDx=0;exitDy=0;entryX=0.101;entryY=0.043;entryDx=0;entryDy=0;entryPerimeter=0;" edge="1" parent="WIyWlLk6GJQsqaUBKTNV-1" source="aCuzjfMaCI9LKKOryCT1-10" target="aCuzjfMaCI9LKKOryCT1-0">
          <mxGeometry width="50" height="50" relative="1" as="geometry">
            <mxPoint x="80" y="170" as="sourcePoint"/>
            <mxPoint x="130" y="120" as="targetPoint"/>
          </mxGeometry>
        </mxCell>
        <mxCell id="aCuzjfMaCI9LKKOryCT1-23" value="" style="endArrow=none;html=1;exitX=0.5;exitY=1;exitDx=0;exitDy=0;entryX=0.25;entryY=0;entryDx=0;entryDy=0;" edge="1" parent="WIyWlLk6GJQsqaUBKTNV-1" source="aCuzjfMaCI9LKKOryCT1-17" target="aCuzjfMaCI9LKKOryCT1-0">
          <mxGeometry width="50" height="50" relative="1" as="geometry">
            <mxPoint x="120" y="180" as="sourcePoint"/>
            <mxPoint x="170" y="130" as="targetPoint"/>
          </mxGeometry>
        </mxCell>
        <mxCell id="aCuzjfMaCI9LKKOryCT1-24" value="" style="endArrow=none;html=1;entryX=0.5;entryY=1;entryDx=0;entryDy=0;exitX=0.5;exitY=0;exitDx=0;exitDy=0;" edge="1" parent="WIyWlLk6GJQsqaUBKTNV-1" source="aCuzjfMaCI9LKKOryCT1-0" target="aCuzjfMaCI9LKKOryCT1-13">
          <mxGeometry width="50" height="50" relative="1" as="geometry">
            <mxPoint x="200" y="210" as="sourcePoint"/>
            <mxPoint x="250" y="160" as="targetPoint"/>
          </mxGeometry>
        </mxCell>
        <mxCell id="aCuzjfMaCI9LKKOryCT1-25" value="" style="endArrow=none;html=1;exitX=1;exitY=0;exitDx=0;exitDy=0;entryX=0;entryY=1;entryDx=0;entryDy=0;" edge="1" parent="WIyWlLk6GJQsqaUBKTNV-1" source="aCuzjfMaCI9LKKOryCT1-18" target="aCuzjfMaCI9LKKOryCT1-0">
          <mxGeometry width="50" height="50" relative="1" as="geometry">
            <mxPoint x="10" y="300" as="sourcePoint"/>
            <mxPoint x="60" y="250" as="targetPoint"/>
          </mxGeometry>
        </mxCell>
        <mxCell id="aCuzjfMaCI9LKKOryCT1-26" value="" style="endArrow=none;html=1;exitX=0.5;exitY=0;exitDx=0;exitDy=0;entryX=0.111;entryY=1.167;entryDx=0;entryDy=0;entryPerimeter=0;" edge="1" parent="WIyWlLk6GJQsqaUBKTNV-1" source="aCuzjfMaCI9LKKOryCT1-16" target="aCuzjfMaCI9LKKOryCT1-0">
          <mxGeometry width="50" height="50" relative="1" as="geometry">
            <mxPoint x="69.65" y="315" as="sourcePoint"/>
            <mxPoint x="119.65" y="265" as="targetPoint"/>
          </mxGeometry>
        </mxCell>
        <mxCell id="aCuzjfMaCI9LKKOryCT1-27" value="" style="endArrow=none;html=1;exitX=0.5;exitY=0;exitDx=0;exitDy=0;entryX=0.25;entryY=1;entryDx=0;entryDy=0;" edge="1" parent="WIyWlLk6GJQsqaUBKTNV-1" source="aCuzjfMaCI9LKKOryCT1-14" target="aCuzjfMaCI9LKKOryCT1-0">
          <mxGeometry width="50" height="50" relative="1" as="geometry">
            <mxPoint x="110" y="320" as="sourcePoint"/>
            <mxPoint x="160" y="270" as="targetPoint"/>
          </mxGeometry>
        </mxCell>
        <mxCell id="aCuzjfMaCI9LKKOryCT1-28" value="" style="endArrow=none;html=1;exitX=0;exitY=1;exitDx=0;exitDy=0;entryX=0.75;entryY=0;entryDx=0;entryDy=0;" edge="1" parent="WIyWlLk6GJQsqaUBKTNV-1" source="aCuzjfMaCI9LKKOryCT1-15" target="aCuzjfMaCI9LKKOryCT1-0">
          <mxGeometry width="50" height="50" relative="1" as="geometry">
            <mxPoint x="250" y="280" as="sourcePoint"/>
            <mxPoint x="300" y="230" as="targetPoint"/>
          </mxGeometry>
        </mxCell>
        <mxCell id="aCuzjfMaCI9LKKOryCT1-31" value="Creation_&lt;br&gt;Date" style="ellipse;whiteSpace=wrap;html=1;" vertex="1" parent="WIyWlLk6GJQsqaUBKTNV-1">
          <mxGeometry x="500" y="160" width="70" height="40" as="geometry"/>
        </mxCell>
        <mxCell id="aCuzjfMaCI9LKKOryCT1-32" value="Survey_&lt;br&gt;Name" style="ellipse;whiteSpace=wrap;html=1;" vertex="1" parent="WIyWlLk6GJQsqaUBKTNV-1">
          <mxGeometry x="390" y="130" width="70" height="40" as="geometry"/>
        </mxCell>
        <mxCell id="aCuzjfMaCI9LKKOryCT1-33" value="Publish_&lt;br&gt;Status" style="ellipse;whiteSpace=wrap;html=1;" vertex="1" parent="WIyWlLk6GJQsqaUBKTNV-1">
          <mxGeometry x="530" y="100" width="70" height="40" as="geometry"/>
        </mxCell>
        <mxCell id="aCuzjfMaCI9LKKOryCT1-34" value="&lt;u&gt;Survey_Id&lt;/u&gt;" style="ellipse;whiteSpace=wrap;html=1;" vertex="1" parent="WIyWlLk6GJQsqaUBKTNV-1">
          <mxGeometry x="330" y="80" width="70" height="40" as="geometry"/>
        </mxCell>
        <mxCell id="aCuzjfMaCI9LKKOryCT1-35" value="User_Id(FK)" style="ellipse;whiteSpace=wrap;html=1;" vertex="1" parent="WIyWlLk6GJQsqaUBKTNV-1">
          <mxGeometry x="440" y="60" width="70" height="40" as="geometry"/>
        </mxCell>
      </root>
    </mxGraphModel>
  </diagram>
</mxfile>
